<svg width="189" height="189" viewBox="0 0 189 189" fill="none" xmlns="http://www.w3.org/2000/svg">
<path d="M189 9.5445L179.456 0L0 179.456L9.5445 189L23.0445 175.5H162C165.579 175.495 169.009 174.071 171.54 171.54C174.071 169.009 175.495 165.579 175.5 162V23.0445L189 9.5445ZM162 162H36.5445L89.1472 109.397L105.206 125.456C107.737 127.986 111.17 129.408 114.75 129.408C118.33 129.408 121.763 127.986 124.294 125.456L135 114.75L162 141.73V162ZM162 122.634L144.544 105.179C142.013 102.648 138.58 101.226 135 101.226C131.42 101.226 127.987 102.648 125.456 105.179L114.75 115.884L98.7052 99.8392L162 36.5445V122.634ZM27 135V114.75L60.75 81.0202L70.0178 90.2947L79.5757 80.7368L70.2945 71.4555C67.7629 68.9246 64.3297 67.5029 60.75 67.5029C57.1703 67.5029 53.7371 68.9246 51.2055 71.4555L27 95.661V27H135V13.5H27C23.4207 13.5036 19.989 14.927 17.458 17.458C14.927 19.989 13.5036 23.4207 13.5 27V135H27Z" fill="#D4D4D4"/>
</svg>
