<svg width="28" height="32" viewBox="0 0 28 32" fill="none" xmlns="http://www.w3.org/2000/svg">
<path d="M21 10V7C21 6.07931 20.3518 4.85061 20 4C19.6482 3.14939 19.65 2.65103 19 2C18.35 1.34897 17.8493 1.35233 17 1C16.1507 0.647667 14.9193 0 14 0C13.0807 0 11.8493 0.647667 11 1C10.1507 1.35233 9.65001 1.34897 9 2C8.34999 2.65103 8.35178 3.14939 8 4C7.64822 4.85061 7 6.07931 7 7V14C7 14.2656 6.81246 14.8122 7 15C7.18754 15.1878 7.73478 15 8 15C8.26522 15 8.81246 15.1878 9 15C9.18754 14.8122 9 14.2656 9 14V12H17V10H9V7C9 5.67184 9.06232 3.93915 10 3C10.9377 2.06085 12.6739 2 14 2C15.3261 2 17.0623 2.06085 18 3C18.9377 3.93915 19 5.67184 19 7V14C19 14.2656 18.8125 14.8122 19 15C19.1875 15.1878 19.7348 15 20 15C20.2652 15 20.8125 15.1878 21 15C21.1875 14.8122 21 14.2656 21 14V12H26V30H2V12H5V10H0V30C0 30.5074 0.641806 30.6412 1 31C1.35819 31.3588 1.49344 32 2 32H26C26.5066 32 26.6418 31.3588 27 31C27.3582 30.6412 28 30.5074 28 30V10H21Z" fill="black"/>
</svg>
