<svg width="137" height="113" viewBox="0 0 137 113" fill="none" xmlns="http://www.w3.org/2000/svg">
<path d="M121 105C131.181 93.8815 137 79.7487 137 64C137 28.8121 106.834 0 69 0C31.1659 0 0 28.8121 0 64C0 79.7487 5.82396 93.8772 16 105H121Z" fill="#FEFA3A"/>
<g clip-path="url(#clip0_139_785)">
<path d="M132 76C100.884 63.5688 68 85 68 85C68 85 35.1158 63.5688 4 76" stroke="#272726" stroke-width="5" stroke-miterlimit="10" stroke-linecap="round" stroke-linejoin="round"/>
<path d="M132 66L114 47C114 47 106.38 46.8859 97 49C89.2584 50.7455 81.9259 54.7682 77 61C71.3923 68.0926 68.4242 74.1175 68 75C70.6772 73.3564 102.146 54.445 132 66Z" stroke="#272726" stroke-width="5" stroke-miterlimit="10" stroke-linecap="round" stroke-linejoin="round"/>
<path d="M4 66L22 47C22 47 29.62 46.8859 39 49C46.7416 50.7455 54.0741 54.7682 59 61C64.6077 68.0926 67.5758 74.1175 68 75C65.3228 73.3564 33.8519 54.445 4 66Z" stroke="#272726" stroke-width="5" stroke-miterlimit="10" stroke-linecap="round" stroke-linejoin="round"/>
<path d="M46 31L20 36C52.6734 43.0236 68 75 68 75C69.4723 45.3527 46 31 46 31Z" stroke="#272726" stroke-width="5" stroke-miterlimit="10" stroke-linecap="round" stroke-linejoin="round"/>
<path d="M90.0001 31L116 36C83.3281 43.0236 68.0001 75 68.0001 75C66.5278 45.3527 90.0001 31 90.0001 31Z" stroke="#272726" stroke-width="5" stroke-miterlimit="10" stroke-linecap="round" stroke-linejoin="round"/>
</g>
<path d="M26.0875 90.4H27.5075C28.2475 90.4 28.8075 90.5433 29.1875 90.83C29.5741 91.11 29.7675 91.51 29.7675 92.03C29.7675 92.31 29.7008 92.56 29.5675 92.78C29.4341 93 29.2575 93.1867 29.0375 93.34C28.8241 93.4867 28.5808 93.6 28.3075 93.68C28.0408 93.76 27.7741 93.8 27.5075 93.8H27.1275V96.35C27.1275 96.4033 27.1341 96.4633 27.1475 96.53C27.1608 96.59 27.1808 96.6467 27.2075 96.7C27.2408 96.7533 27.2741 96.8 27.3075 96.84C27.3475 96.88 27.3941 96.9 27.4475 96.9H27.4975V97H26.0875V96.9H26.1375C26.1841 96.9 26.2275 96.88 26.2675 96.84C26.3075 96.8 26.3408 96.7533 26.3675 96.7C26.3941 96.6467 26.4141 96.59 26.4275 96.53C26.4408 96.4633 26.4475 96.4033 26.4475 96.35V91.02C26.4475 90.9267 26.4208 90.82 26.3675 90.7C26.3141 90.58 26.2375 90.5133 26.1375 90.5H26.0875V90.4ZM27.1275 90.75V93.45H27.4275C27.6941 93.45 27.9308 93.4133 28.1375 93.34C28.3508 93.2667 28.5275 93.17 28.6675 93.05C28.8075 92.93 28.9141 92.7933 28.9875 92.64C29.0608 92.4867 29.0975 92.33 29.0975 92.17C29.0975 91.9767 29.0641 91.7967 28.9975 91.63C28.9375 91.4567 28.8341 91.3067 28.6875 91.18C28.5475 91.0467 28.3608 90.9433 28.1275 90.87C27.8941 90.79 27.6075 90.75 27.2675 90.75H27.1275ZM30.6189 96.9H30.6689C30.7223 96.9 30.7689 96.8833 30.8089 96.85C30.8489 96.81 30.8823 96.7633 30.9089 96.71C30.9423 96.6567 30.9656 96.6 30.9789 96.54C30.9989 96.48 31.0089 96.4233 31.0089 96.37V91.02C31.0089 90.9733 30.9989 90.92 30.9789 90.86C30.9656 90.8 30.9423 90.7433 30.9089 90.69C30.8823 90.6367 30.8489 90.5933 30.8089 90.56C30.7689 90.52 30.7223 90.5 30.6689 90.5H30.6189V90.4H34.4689V91.33H34.3689C34.3556 91.1767 34.2956 91.0433 34.1889 90.93C34.0823 90.81 33.9156 90.75 33.6889 90.75H31.6789V93.28H33.3389C33.4923 93.28 33.6189 93.2333 33.7189 93.14C33.8256 93.0467 33.8789 92.9367 33.8789 92.81H33.9789V94.06H33.8789C33.8789 93.94 33.8289 93.8367 33.7289 93.75C33.6289 93.6633 33.4989 93.62 33.3389 93.62H31.6789V96.65H33.8689C33.9956 96.65 34.1056 96.62 34.1989 96.56C34.2923 96.5 34.3689 96.43 34.4289 96.35C34.4956 96.2633 34.5423 96.1733 34.5689 96.08C34.6023 95.98 34.6189 95.8967 34.6189 95.83H34.7189V97H30.6189V96.9ZM36.8325 96.9H36.8825V97H35.4725V96.9H35.5225C35.5691 96.9 35.6125 96.88 35.6525 96.84C35.6925 96.8 35.7258 96.7533 35.7525 96.7C35.7858 96.6467 35.8091 96.59 35.8225 96.53C35.8358 96.4633 35.8425 96.4033 35.8425 96.35V91.02C35.8425 90.9733 35.8358 90.92 35.8225 90.86C35.8091 90.8 35.7858 90.7433 35.7525 90.69C35.7258 90.6367 35.6925 90.5933 35.6525 90.56C35.6125 90.52 35.5691 90.5 35.5225 90.5H35.4725V90.4H37.2125C37.8791 90.4 38.3925 90.53 38.7525 90.79C39.1191 91.05 39.3025 91.4333 39.3025 91.94C39.3025 92.1933 39.2591 92.4167 39.1725 92.61C39.0925 92.7967 38.9825 92.96 38.8425 93.1C38.7025 93.2333 38.5358 93.3433 38.3425 93.43C38.1558 93.51 37.9558 93.57 37.7425 93.61L38.4625 94.71C38.6358 94.9767 38.8125 95.24 38.9925 95.5C39.1725 95.7533 39.3491 96.0167 39.5225 96.29C39.5691 96.3567 39.6191 96.4267 39.6725 96.5C39.7325 96.5733 39.7925 96.64 39.8525 96.7C39.9191 96.76 39.9858 96.81 40.0525 96.85C40.1258 96.8833 40.1991 96.9 40.2725 96.9V97H39.8425C39.5758 97 39.3558 96.9367 39.1825 96.81C39.0158 96.6767 38.8758 96.5233 38.7625 96.35C38.4625 95.91 38.1625 95.4633 37.8625 95.01C37.5691 94.5567 37.2758 94.11 36.9825 93.67C36.9091 93.6633 36.8291 93.6567 36.7425 93.65C36.6625 93.6367 36.5858 93.6233 36.5125 93.61V96.35C36.5125 96.4033 36.5191 96.4633 36.5325 96.53C36.5458 96.59 36.5658 96.6467 36.5925 96.7C36.6258 96.7533 36.6591 96.8 36.6925 96.84C36.7325 96.88 36.7791 96.9 36.8325 96.9ZM36.5125 90.74V93.28H36.5625C36.6158 93.2867 36.6991 93.2933 36.8125 93.3C36.9325 93.3 37.0791 93.3 37.2525 93.3C37.3925 93.3 37.5391 93.28 37.6925 93.24C37.8525 93.1933 37.9991 93.12 38.1325 93.02C38.2725 92.9133 38.3858 92.7767 38.4725 92.61C38.5658 92.4433 38.6125 92.2333 38.6125 91.98C38.6125 91.7267 38.5625 91.52 38.4625 91.36C38.3691 91.2 38.2358 91.0733 38.0625 90.98C37.8958 90.8867 37.6925 90.8233 37.4525 90.79C37.2125 90.7567 36.9491 90.74 36.6625 90.74H36.5125ZM44.9229 95.23C44.9229 95.5633 44.8562 95.85 44.7229 96.09C44.5895 96.3233 44.4162 96.5133 44.2029 96.66C43.9962 96.8067 43.7595 96.9133 43.4929 96.98C43.2329 97.0467 42.9729 97.08 42.7129 97.08C42.4462 97.08 42.2162 97.0533 42.0229 97C41.8295 96.9467 41.6529 96.8967 41.4929 96.85C41.3862 96.8167 41.2895 96.79 41.2029 96.77C41.1162 96.7433 41.0295 96.73 40.9429 96.73V95.59H41.0429C41.0429 95.8433 41.1062 96.0467 41.2329 96.2C41.3662 96.3467 41.5195 96.46 41.6929 96.54C41.8662 96.62 42.0395 96.6733 42.2129 96.7C42.3862 96.72 42.5129 96.73 42.5929 96.73C42.8795 96.73 43.1262 96.69 43.3329 96.61C43.5395 96.5233 43.7095 96.4133 43.8429 96.28C43.9762 96.14 44.0729 95.9867 44.1329 95.82C44.1995 95.6533 44.2329 95.4833 44.2329 95.31C44.2329 95.09 44.1862 94.9067 44.0929 94.76C43.9995 94.6067 43.8762 94.4733 43.7229 94.36C43.5762 94.2467 43.4062 94.15 43.2129 94.07C43.0195 93.99 42.8229 93.91 42.6229 93.83C42.3962 93.7433 42.1729 93.6533 41.9529 93.56C41.7329 93.4667 41.5362 93.3533 41.3629 93.22C41.1895 93.08 41.0495 92.9167 40.9429 92.73C40.8362 92.5367 40.7829 92.3 40.7829 92.02C40.7829 91.7267 40.8395 91.4733 40.9529 91.26C41.0662 91.04 41.2162 90.86 41.4029 90.72C41.5962 90.58 41.8129 90.4767 42.0529 90.41C42.2995 90.3367 42.5495 90.3 42.8029 90.3C42.9762 90.3 43.1395 90.3133 43.2929 90.34C43.4462 90.36 43.5929 90.3867 43.7329 90.42C43.8462 90.4467 43.9562 90.47 44.0629 90.49C44.1695 90.5033 44.2729 90.51 44.3729 90.51V91.54H44.2729C44.2595 91.1933 44.1229 90.96 43.8629 90.84C43.6029 90.7133 43.2429 90.65 42.7829 90.65C42.5162 90.65 42.2962 90.6967 42.1229 90.79C41.9562 90.8767 41.8229 90.9867 41.7229 91.12C41.6229 91.2467 41.5529 91.3867 41.5129 91.54C41.4795 91.6867 41.4629 91.8167 41.4629 91.93C41.4629 92.1167 41.5029 92.2767 41.5829 92.41C41.6695 92.5433 41.7829 92.66 41.9229 92.76C42.0629 92.86 42.2229 92.95 42.4029 93.03C42.5895 93.11 42.7829 93.1867 42.9829 93.26C43.2095 93.3467 43.4395 93.44 43.6729 93.54C43.9062 93.64 44.1129 93.7633 44.2929 93.91C44.4795 94.0567 44.6295 94.2367 44.7429 94.45C44.8629 94.6633 44.9229 94.9233 44.9229 95.23ZM49.1452 90.3C49.6652 90.3 50.1319 90.3933 50.5452 90.58C50.9585 90.76 51.3085 91.0067 51.5952 91.32C51.8885 91.6267 52.1119 91.9867 52.2652 92.4C52.4252 92.8067 52.5052 93.2333 52.5052 93.68C52.5052 94.18 52.4119 94.64 52.2252 95.06C52.0452 95.48 51.7952 95.84 51.4752 96.14C51.1552 96.44 50.7819 96.6767 50.3552 96.85C49.9352 97.0167 49.4852 97.1 49.0052 97.1C48.4919 97.1 48.0285 97.0067 47.6152 96.82C47.2085 96.6333 46.8619 96.3867 46.5752 96.08C46.2952 95.7733 46.0785 95.42 45.9252 95.02C45.7719 94.62 45.6952 94.2033 45.6952 93.77C45.6952 93.3433 45.7719 92.9233 45.9252 92.51C46.0785 92.09 46.3019 91.7167 46.5952 91.39C46.8952 91.0633 47.2585 90.8 47.6852 90.6C48.1119 90.4 48.5985 90.3 49.1452 90.3ZM49.1352 96.75C49.5819 96.73 49.9719 96.63 50.3052 96.45C50.6452 96.2633 50.9285 96.03 51.1552 95.75C51.3819 95.4633 51.5485 95.15 51.6552 94.81C51.7685 94.47 51.8252 94.1333 51.8252 93.8C51.8252 93.4333 51.7585 93.0633 51.6252 92.69C51.4919 92.3167 51.3019 91.98 51.0552 91.68C50.8085 91.3733 50.5119 91.1267 50.1652 90.94C49.8252 90.7467 49.4419 90.65 49.0152 90.65C48.6019 90.65 48.2319 90.7433 47.9052 90.93C47.5785 91.11 47.2985 91.3433 47.0652 91.63C46.8385 91.9167 46.6652 92.2367 46.5452 92.59C46.4252 92.9433 46.3652 93.29 46.3652 93.63C46.3652 93.9967 46.4352 94.3667 46.5752 94.74C46.7152 95.1067 46.9085 95.44 47.1552 95.74C47.4019 96.04 47.6919 96.2833 48.0252 96.47C48.3652 96.6567 48.7352 96.75 49.1352 96.75ZM54.4326 96.9H54.4826V97H53.3726V96.9H53.4226C53.4693 96.9 53.5126 96.88 53.5526 96.84C53.5993 96.8 53.636 96.7533 53.6626 96.7C53.6893 96.6467 53.7093 96.59 53.7226 96.53C53.7426 96.4633 53.7526 96.4033 53.7526 96.35V91.02C53.7526 90.9733 53.746 90.92 53.7326 90.86C53.726 90.8 53.7093 90.7433 53.6826 90.69C53.656 90.6367 53.6193 90.5933 53.5726 90.56C53.526 90.52 53.4693 90.5 53.4026 90.5H53.3526V90.4H54.3626L57.9926 96.12V91.02C57.9926 90.9733 57.9826 90.92 57.9626 90.86C57.9493 90.8 57.926 90.7433 57.8926 90.69C57.866 90.6367 57.8326 90.5933 57.7926 90.56C57.7526 90.52 57.706 90.5 57.6526 90.5H57.6026V90.4H58.7226V90.5H58.6726C58.6193 90.5 58.5726 90.52 58.5326 90.56C58.4926 90.5933 58.456 90.6367 58.4226 90.69C58.396 90.7433 58.376 90.8 58.3626 90.86C58.3493 90.92 58.3426 90.9733 58.3426 91.02V97H57.7226L54.1026 91.26V96.35C54.1026 96.4033 54.1093 96.4633 54.1226 96.53C54.136 96.59 54.156 96.6467 54.1826 96.7C54.216 96.7533 54.2526 96.8 54.2926 96.84C54.3326 96.88 54.3793 96.9 54.4326 96.9ZM63.4819 96.9H63.5319C63.6919 96.9 63.7719 96.8267 63.7719 96.68C63.7719 96.6267 63.7619 96.57 63.7419 96.51L62.8419 94.08H61.0919L60.2219 96.47C60.2019 96.5233 60.1919 96.5733 60.1919 96.62C60.1919 96.7067 60.2152 96.7767 60.2619 96.83C60.3086 96.8767 60.3586 96.9 60.4119 96.9H60.4619V97H59.3519V96.9H59.4019C59.4886 96.9 59.5719 96.85 59.6519 96.75C59.7386 96.6433 59.8086 96.52 59.8619 96.38L62.1519 90.28L64.3919 96.32C64.4386 96.4533 64.5019 96.5833 64.5819 96.71C64.6686 96.8367 64.7786 96.9 64.9119 96.9H64.9619V97H63.4819V96.9ZM61.1919 93.74H62.7319L61.9619 91.65L61.1919 93.74ZM65.5604 96.9H65.6104C65.6637 96.9 65.7104 96.8833 65.7504 96.85C65.7904 96.81 65.8237 96.7633 65.8504 96.71C65.8837 96.6567 65.907 96.6 65.9204 96.54C65.9404 96.48 65.9504 96.4233 65.9504 96.37V91.02C65.9504 90.9733 65.9404 90.92 65.9204 90.86C65.907 90.8 65.8837 90.7433 65.8504 90.69C65.8237 90.6367 65.7904 90.5933 65.7504 90.56C65.7104 90.52 65.6637 90.5 65.6104 90.5H65.5604V90.4H67.0004V90.5H66.9504C66.897 90.5 66.8504 90.52 66.8104 90.56C66.7704 90.5933 66.737 90.6367 66.7104 90.69C66.6837 90.7433 66.6604 90.8 66.6404 90.86C66.627 90.92 66.6204 90.9733 66.6204 91.02V96.63H68.8104C68.937 96.63 69.047 96.6 69.1404 96.54C69.2337 96.48 69.3104 96.4067 69.3704 96.32C69.437 96.2267 69.4837 96.13 69.5104 96.03C69.5437 95.9233 69.5604 95.8267 69.5604 95.74H69.6604V97H65.5604V96.9ZM74.1964 96.9H74.2464V97H72.8164V96.9H72.8664C72.9198 96.9 72.9664 96.8833 73.0064 96.85C73.0464 96.81 73.0798 96.7633 73.1064 96.71C73.1398 96.6567 73.1631 96.6 73.1764 96.54C73.1898 96.48 73.1964 96.4233 73.1964 96.37V91.02C73.1964 90.9733 73.1898 90.92 73.1764 90.86C73.1631 90.8 73.1431 90.7433 73.1164 90.69C73.0898 90.6367 73.0531 90.5933 73.0064 90.56C72.9664 90.52 72.9198 90.5 72.8664 90.5H72.8164V90.4H76.6564V91.33H76.5564C76.5564 91.1767 76.5031 91.0433 76.3964 90.93C76.2964 90.81 76.1364 90.75 75.9164 90.75H73.8664V93.28H75.5264C75.6798 93.28 75.8064 93.2333 75.9064 93.14C76.0131 93.0467 76.0664 92.9367 76.0664 92.81H76.1664V94.06H76.0664C76.0664 93.94 76.0164 93.8367 75.9164 93.75C75.8164 93.6633 75.6864 93.62 75.5264 93.62H73.8664V96.37C73.8664 96.4233 73.8731 96.48 73.8864 96.54C73.8998 96.6 73.9198 96.6567 73.9464 96.71C73.9798 96.7633 74.0164 96.81 74.0564 96.85C74.0964 96.8833 74.1431 96.9 74.1964 96.9ZM78.7661 96.9H78.8161V97H77.4061V96.9H77.4561C77.5027 96.9 77.5461 96.88 77.5861 96.84C77.6261 96.8 77.6594 96.7533 77.6861 96.7C77.7194 96.6467 77.7427 96.59 77.7561 96.53C77.7694 96.4633 77.7761 96.4033 77.7761 96.35V91.02C77.7761 90.9733 77.7694 90.92 77.7561 90.86C77.7427 90.8 77.7194 90.7433 77.6861 90.69C77.6594 90.6367 77.6261 90.5933 77.5861 90.56C77.5461 90.52 77.5027 90.5 77.4561 90.5H77.4061V90.4H79.1461C79.8127 90.4 80.3261 90.53 80.6861 90.79C81.0527 91.05 81.2361 91.4333 81.2361 91.94C81.2361 92.1933 81.1927 92.4167 81.1061 92.61C81.0261 92.7967 80.9161 92.96 80.7761 93.1C80.6361 93.2333 80.4694 93.3433 80.2761 93.43C80.0894 93.51 79.8894 93.57 79.6761 93.61L80.3961 94.71C80.5694 94.9767 80.7461 95.24 80.9261 95.5C81.1061 95.7533 81.2827 96.0167 81.4561 96.29C81.5027 96.3567 81.5527 96.4267 81.6061 96.5C81.6661 96.5733 81.7261 96.64 81.7861 96.7C81.8527 96.76 81.9194 96.81 81.9861 96.85C82.0594 96.8833 82.1327 96.9 82.2061 96.9V97H81.7761C81.5094 97 81.2894 96.9367 81.1161 96.81C80.9494 96.6767 80.8094 96.5233 80.6961 96.35C80.3961 95.91 80.0961 95.4633 79.7961 95.01C79.5027 94.5567 79.2094 94.11 78.9161 93.67C78.8427 93.6633 78.7627 93.6567 78.6761 93.65C78.5961 93.6367 78.5194 93.6233 78.4461 93.61V96.35C78.4461 96.4033 78.4527 96.4633 78.4661 96.53C78.4794 96.59 78.4994 96.6467 78.5261 96.7C78.5594 96.7533 78.5927 96.8 78.6261 96.84C78.6661 96.88 78.7127 96.9 78.7661 96.9ZM78.4461 90.74V93.28H78.4961C78.5494 93.2867 78.6327 93.2933 78.7461 93.3C78.8661 93.3 79.0127 93.3 79.1861 93.3C79.3261 93.3 79.4727 93.28 79.6261 93.24C79.7861 93.1933 79.9327 93.12 80.0661 93.02C80.2061 92.9133 80.3194 92.7767 80.4061 92.61C80.4994 92.4433 80.5461 92.2333 80.5461 91.98C80.5461 91.7267 80.4961 91.52 80.3961 91.36C80.3027 91.2 80.1694 91.0733 79.9961 90.98C79.8294 90.8867 79.6261 90.8233 79.3861 90.79C79.1461 90.7567 78.8827 90.74 78.5961 90.74H78.4461ZM82.8064 96.9H82.8564C82.9098 96.9 82.9564 96.8833 82.9964 96.85C83.0364 96.81 83.0698 96.7633 83.0964 96.71C83.1298 96.6567 83.1531 96.6 83.1664 96.54C83.1864 96.48 83.1964 96.4233 83.1964 96.37V91.02C83.1964 90.9733 83.1864 90.92 83.1664 90.86C83.1531 90.8 83.1298 90.7433 83.0964 90.69C83.0698 90.6367 83.0364 90.5933 82.9964 90.56C82.9564 90.52 82.9098 90.5 82.8564 90.5H82.8064V90.4H86.6564V91.33H86.5564C86.5431 91.1767 86.4831 91.0433 86.3764 90.93C86.2698 90.81 86.1031 90.75 85.8764 90.75H83.8664V93.28H85.5264C85.6798 93.28 85.8064 93.2333 85.9064 93.14C86.0131 93.0467 86.0664 92.9367 86.0664 92.81H86.1664V94.06H86.0664C86.0664 93.94 86.0164 93.8367 85.9164 93.75C85.8164 93.6633 85.6864 93.62 85.5264 93.62H83.8664V96.65H86.0564C86.1831 96.65 86.2931 96.62 86.3864 96.56C86.4798 96.5 86.5564 96.43 86.6164 96.35C86.6831 96.2633 86.7298 96.1733 86.7564 96.08C86.7898 95.98 86.8064 95.8967 86.8064 95.83H86.9064V97H82.8064V96.9ZM87.66 96.9H87.71C87.7633 96.9 87.81 96.8833 87.85 96.85C87.89 96.81 87.9233 96.7633 87.95 96.71C87.9833 96.6567 88.0066 96.6 88.02 96.54C88.04 96.48 88.05 96.4233 88.05 96.37V91.02C88.05 90.9733 88.04 90.92 88.02 90.86C88.0066 90.8 87.9833 90.7433 87.95 90.69C87.9233 90.6367 87.89 90.5933 87.85 90.56C87.81 90.52 87.7633 90.5 87.71 90.5H87.66V90.4H91.51V91.33H91.41C91.3966 91.1767 91.3366 91.0433 91.23 90.93C91.1233 90.81 90.9566 90.75 90.73 90.75H88.72V93.28H90.38C90.5333 93.28 90.66 93.2333 90.76 93.14C90.8666 93.0467 90.92 92.9367 90.92 92.81H91.02V94.06H90.92C90.92 93.94 90.87 93.8367 90.77 93.75C90.67 93.6633 90.54 93.62 90.38 93.62H88.72V96.65H90.91C91.0366 96.65 91.1466 96.62 91.24 96.56C91.3333 96.5 91.41 96.43 91.47 96.35C91.5366 96.2633 91.5833 96.1733 91.61 96.08C91.6433 95.98 91.66 95.8967 91.66 95.83H91.76V97H87.66V96.9ZM92.5035 96.9H92.5535C92.6001 96.9 92.6435 96.88 92.6835 96.84C92.7235 96.8 92.7568 96.7533 92.7835 96.7C92.8168 96.6467 92.8401 96.59 92.8535 96.53C92.8668 96.4633 92.8735 96.4033 92.8735 96.35V91.02C92.8735 90.9733 92.8668 90.92 92.8535 90.86C92.8401 90.8 92.8201 90.7433 92.7935 90.69C92.7668 90.6367 92.7335 90.5933 92.6935 90.56C92.6535 90.52 92.6068 90.5 92.5535 90.5H92.5035V90.4H94.4335C94.9601 90.4 95.4335 90.4933 95.8535 90.68C96.2735 90.86 96.6268 91.1067 96.9135 91.42C97.2068 91.7267 97.4301 92.08 97.5835 92.48C97.7368 92.88 97.8135 93.2967 97.8135 93.73C97.8135 94.1367 97.7401 94.5367 97.5935 94.93C97.4468 95.3167 97.2268 95.6633 96.9335 95.97C96.6401 96.2767 96.2735 96.5267 95.8335 96.72C95.3935 96.9067 94.8835 97 94.3035 97H92.5035V96.9ZM97.1335 93.88C97.1335 93.4533 97.0568 93.05 96.9035 92.67C96.7501 92.29 96.5335 91.96 96.2535 91.68C95.9801 91.3933 95.6535 91.1667 95.2735 91C94.9001 90.8333 94.4935 90.75 94.0535 90.75H93.5435V96.65H94.0735C94.4335 96.65 94.7935 96.5967 95.1535 96.49C95.5201 96.3767 95.8501 96.2067 96.1435 95.98C96.4368 95.7467 96.6735 95.4567 96.8535 95.11C97.0401 94.7633 97.1335 94.3533 97.1335 93.88ZM101.792 90.3C102.312 90.3 102.778 90.3933 103.192 90.58C103.605 90.76 103.955 91.0067 104.242 91.32C104.535 91.6267 104.758 91.9867 104.912 92.4C105.072 92.8067 105.152 93.2333 105.152 93.68C105.152 94.18 105.058 94.64 104.872 95.06C104.692 95.48 104.442 95.84 104.122 96.14C103.802 96.44 103.428 96.6767 103.002 96.85C102.582 97.0167 102.132 97.1 101.652 97.1C101.138 97.1 100.675 97.0067 100.262 96.82C99.855 96.6333 99.5083 96.3867 99.2217 96.08C98.9417 95.7733 98.725 95.42 98.5717 95.02C98.4183 94.62 98.3417 94.2033 98.3417 93.77C98.3417 93.3433 98.4183 92.9233 98.5717 92.51C98.725 92.09 98.9483 91.7167 99.2417 91.39C99.5417 91.0633 99.905 90.8 100.332 90.6C100.758 90.4 101.245 90.3 101.792 90.3ZM101.782 96.75C102.228 96.73 102.618 96.63 102.952 96.45C103.292 96.2633 103.575 96.03 103.802 95.75C104.028 95.4633 104.195 95.15 104.302 94.81C104.415 94.47 104.472 94.1333 104.472 93.8C104.472 93.4333 104.405 93.0633 104.272 92.69C104.138 92.3167 103.948 91.98 103.702 91.68C103.455 91.3733 103.158 91.1267 102.812 90.94C102.472 90.7467 102.088 90.65 101.662 90.65C101.248 90.65 100.878 90.7433 100.552 90.93C100.225 91.11 99.945 91.3433 99.7117 91.63C99.485 91.9167 99.3117 92.2367 99.1917 92.59C99.0717 92.9433 99.0117 93.29 99.0117 93.63C99.0117 93.9967 99.0817 94.3667 99.2217 94.74C99.3617 95.1067 99.555 95.44 99.8017 95.74C100.048 96.04 100.338 96.2833 100.672 96.47C101.012 96.6567 101.382 96.75 101.782 96.75ZM111.409 96.9H111.459C111.506 96.9 111.549 96.88 111.589 96.84C111.629 96.8 111.662 96.7533 111.689 96.7C111.722 96.6467 111.746 96.59 111.759 96.53C111.772 96.4633 111.779 96.4033 111.779 96.35V91.09L109.199 97.11L106.749 91.4V96.35C106.749 96.4033 106.756 96.4633 106.769 96.53C106.782 96.59 106.802 96.6467 106.829 96.7C106.862 96.7533 106.899 96.8 106.939 96.84C106.979 96.88 107.026 96.9 107.079 96.9H107.129V97H106.039V96.9H106.089C106.136 96.9 106.179 96.88 106.219 96.84C106.259 96.8 106.292 96.7533 106.319 96.7C106.346 96.6467 106.366 96.59 106.379 96.53C106.392 96.4633 106.399 96.4033 106.399 96.35V91.02C106.399 90.9733 106.392 90.92 106.379 90.86C106.366 90.8 106.346 90.7433 106.319 90.69C106.292 90.6367 106.259 90.5933 106.219 90.56C106.179 90.52 106.136 90.5 106.089 90.5H106.039V90.4H107.059L109.379 95.87L111.699 90.4H112.829V90.5H112.779C112.726 90.5 112.679 90.52 112.639 90.56C112.599 90.5933 112.562 90.6367 112.529 90.69C112.502 90.7433 112.482 90.8 112.469 90.86C112.456 90.92 112.449 90.9733 112.449 91.02V96.35C112.449 96.4033 112.456 96.4633 112.469 96.53C112.482 96.59 112.502 96.6467 112.529 96.7C112.562 96.7533 112.599 96.8 112.639 96.84C112.679 96.88 112.726 96.9 112.779 96.9H112.829V97H111.409V96.9Z" fill="black"/>
<defs>
<clipPath id="clip0_139_785">
<rect width="134" height="58" fill="white" transform="translate(1 29)"/>
</clipPath>
</defs>
</svg>
