<svg width="42" height="40" viewBox="0 0 42 40" fill="none" xmlns="http://www.w3.org/2000/svg">
<path fill-rule="evenodd" clip-rule="evenodd" d="M30.0827 25.2573L41.3801 35.7919C41.7772 36.1625 42.0002 36.6649 42 37.1888C41.9998 37.7126 41.7765 38.2149 41.3791 38.5852C40.9817 38.9555 40.4429 39.1634 39.8811 39.1632C39.3193 39.163 38.7807 38.9548 38.3836 38.5842L27.0861 28.0495C23.7089 30.4887 19.4619 31.6366 15.2093 31.2596C10.9567 30.8826 7.01782 29.0091 4.19398 26.0202C1.37014 23.0313 -0.126551 19.1515 0.00839189 15.1701C0.143335 11.1887 1.89977 7.40483 4.92038 4.58816C7.941 1.7715 11.9989 0.133657 16.2686 0.00782528C20.5382 -0.118006 24.6989 1.27763 27.9042 3.9108C31.1096 6.54398 33.1187 10.2169 33.523 14.1824C33.9273 18.1479 32.6964 22.108 30.0806 25.2573H30.0827ZM16.8008 27.4132C20.1424 27.4132 23.3471 26.1753 25.7099 23.972C28.0728 21.7687 29.4002 18.7804 29.4002 15.6644C29.4002 12.5485 28.0728 9.56016 25.7099 7.35685C23.3471 5.15354 20.1424 3.91574 16.8008 3.91574C13.4592 3.91574 10.2545 5.15354 7.89165 7.35685C5.5288 9.56016 4.20137 12.5485 4.20137 15.6644C4.20137 18.7804 5.5288 21.7687 7.89165 23.972C10.2545 26.1753 13.4592 27.4132 16.8008 27.4132Z" fill="#F67DF9"/>
</svg>
